<svg width="7.1111in" height="7.1111in" viewBox="0 0 512 512"
    xmlns="http://www.w3.org/2000/svg">
    <path id="black_dog" d="m224 194.44c-5.18-0.94-8.53 1.54-8.53 1.54-2.99 5.14-4.48 2.71-7.41 9.02l-4.75 14-7.74 19c-6.39 14.99-13.76 27.1-13.57 44 0.06 5.1 0.76 8.33 2.9 13 1.2 2.63 3.92 6.15 3.51 9-1.49 10.23-19.96 9.29-21.98 21-1.24 7.23 6.27 12.54 11.57 15.8 10.43 6.4 10.33 8.66 17 13.1l18 9.52c2.74 1.55 5.03 2.94 8 4.12 3.7 1.46 9.84 2.38 12.59 4.97 2.22 2.09 3.97 7.49 5.76 10.49 3.65 6.12 10.32 10.54 17.65 9.8 7.02-0.7 11.78-6.01 15.12-11.8 1.8-3.12 2.94-7.05 6.01-9.15 4.25-2.89 7.49-0.29 18.87-6.11 4.64-2.37 18.39-10.09 22-13.07l9-8.15s10.98-7.84 10.98-7.84c1.59-1.38 3.08-2.88 4.17-4.68 9.02-15.03-17.08-16.93-18.04-27-0.27-2.84 2.81-7.13 3.96-10 1.88-4.68 3.24-11.98 2.64-17-1.87-15.8-9-25.62-14.02-40-2.09-6.01-4.6-16.66-5.41-23-0.67-5.24-0.87-12.06-2.84-16.96-3.84-9.26-17.33-4.02-14.7-4.52 0 0-1.5 0.52-3.22 1.05-2.14 0.65-4.46 2.46-4.46 2.46-10.25 18.33-21.27 28.38-26.17 49.97-0.8 3.51-1.37 15.99-7.5 14.28-3.88-1.08-4.51-11.8-5.27-15.28-3.27-14.82-9.11-32.87-15.04-46.84 0 0-6.86-4.32-9.08-4.72zm53 117.56c5.46-1.56 10.34-4.73 16-5.68l13-0.63c2.31-0.88 5.09-3.72 7-5.41 14.94-13.22 10.25-25.15 3.8-41.28l-7.78-21c-2.85-9.16-4.83-18.55-6.43-28-0.53-3.09-0.97-8.35-4.69-9.26-3.81-0.93-6.16 3.59-7.67 6.26l-13.79 22c-5.61 10.22-5.97 16.81-9.16 27-2.6 8.27-6.12 8.43-7.71 12.28-1.05 2.57-0.58 22.46-0.57 26.72 0 2.09-0.23 5.73 1.02 7.44 1.29 1.76 4.94 2.52 6.98 3.26 4.37 1.59 6.81 2.89 10 6.3zm-31-8c0-9.85-0.03-12.08 1.15-22 0.32-2.64 1.8-10.89 1.46-12.91-0.64-3.83-4.12-5.1-6.39-12.09l-2.87-13-4.68-16-5.76-18c-0.87-2.31-2.35-5.62-5.01-6.26-3-0.72-5.17 2.01-6.49 4.28l-8.42 20.98c-6.22 14.97-18.36 37.01-17.98 53 0.39 15.7 11.72 14.88 14.99 25.96 5.43-0.93 8.48-1.48 14 0 2.96 0.74 8.44 3.41 11 3.1 3.32-0.39 7.29-4.86 15-7.06zm23 61c-4.72-3.71-5.23-5.8-9.09-10l-11.28-12-8.15-13c-6.92-8.69-15.65-11.95-26.48-12-11.88-0.06-16.12-0.58-28 2.24-3.21 0.76-8.97 1.98-9.58 5.86-0.87 5.55 7.65 9.5 11.58 11.75l24 12.85c9.35 6.06 9.17 9.78 21 13.39 15.71 4.85 31.42 5.24 47 0 2.41-0.83 4.75-1.41 7-2.65 5.95-3.26 8.07-7.88 16-12.08l24-13.23c2.84-1.68 7.3-4.65 8.04-8.09 0.63-2.99-1.74-4.69-4.08-5.85-3.42-1.69-13.95-4.12-17.96-4.75-12.05-1.89-26.95-1.97-36.96 6.09-5.57 4.48-8.08 11-11.22 12.4-2.26 1.01-5.25-0.46-7.82-0.74-3.81-0.42-5.62 0.25-9 1.81 6.63 12.35 18.25 13.37 21 28zm14-43.34c13.22-2 14.64 15.85 3 19.33-6.61 1.98-12.99-2.97-11.59-9.99 0.98-4.96 4.19-7.5 8.59-9.34zm-60.96 1.36c12.31-4.07 19.7 12.13 8.92 17.8-9.01 4.75-20.63-9.09-8.92-17.8zm42.96 49.98-20-1c0.08 3.4 0.1 5.95 2.01 8.96 5.34 8.42 17.21 6.08 17.99-7.96z" stroke="#000"/>
    <path id="white_outline" d="m253 92c6.08 2.26 5.94 1.87 12 0 0 0 21.14 37 21.14 37s12.28 23 12.28 23 19.58 37 19.58 37l-8 1-1 8c-4.03-6.71-6.8-4.64-9.73-9.21l-5.38-11.79s-21.64-43-21.64-43c-4.14-8.27-8.76-21.94-17.25-26 0 0-18.14 40-18.14 40l-13.58 32-5.64 13.83s-10.64 12.17-10.64 12.17c-1.84-10.26-0.27-11.4-9-11 7.55-17.53 24.76-49.93 34.42-67l20.58-36zm-89 83s30 5 30 5c-0.69 3.82-4.37 14.83-7.49 16.98-1.73 1.18-5.36 1.05-7.51 1.3l-19 1.72 4-25zm143 131.96c-5.66-0.97-10.31-1.57-16 0l-12 4.27c-2.82 0.07-6.35-2.65-9-3.91-9.17-4.33-10.98-1.37-11-12.32v-20c0.02-12.42 3.72-7.38 7.44-17l4.31-16c2.41-7.53 6.53-15.3 10.71-22 0 0 6.44-9 6.44-9s4.57-7.89 4.57-7.89c1.32-1.87 2.94-3.67 5.46-2.71 2.94 1.11 4.02 4.85 4.62 7.6l4.18 21c2.09 7.9 5.54 18.49 8.69 26 3.67 8.74 7.93 17.27 7.54 27-0.58 14.41-8.81 15.1-15.96 24.96zm-101 1.19c-2.76-9.55-11.35-9.72-14.36-20.15-2.36-8.14 0.74-19.38 3.76-27 0 0 13.88-33 13.88-33l8.13-19.98c1.35-2.32 3.49-4.99 6.54-4.28 2.86 0.67 4.12 3.82 5.03 6.26l5.44 17 5.21 18 3.13 13c2.25 6.52 5.31 7.66 5.88 11.17l-1.71 16.83c-0.25 2.62-1.08 16.17-1.92 17.3-1.06 1.44-4.35 2.69-6.01 3.65-2.31 1.34-5.45 3.97-8 4.33-2.9 0.41-6.95-2.11-10-3.13-6.07-1.57-8.98-1.23-15 0zm-70-101.15 15-1-5.87 51-3.25 32.19s-1.92-36.19-1.92-36.19l-1.79-21s-2.17-25-2.17-25zm112 130c3.36-1.68 5.11-2.61 9-2.09 2.4 0.33 5.63 1.95 7.79 1 2-0.87 3.7-4.15 4.99-5.91 2.32-3.16 4.92-5.89 8.22-8.04 12.7-8.27 28.06-5.99 42-3.16 3.95 0.8 13.05 2.46 14.87 6.41 2.97 6.45-12.54 13.59-16.87 16.19l-19 10.56-11 9.05c-7.8 4.83-22.82 7.09-32 6.99-7.89-0.1-21.97-2.68-29-6.14-5.07-2.48-8.38-6.46-13-9.64l-17-9.36c-4.96-2.72-18.32-8.81-20.24-13.95-1.64-4.36 1.64-6.46 5.24-7.69 6.36-2.18 13.31-3.21 20-3.22 10.13-0.02 19.68-1.07 29 3.82 10.33 5.42 11.9 12.97 17.79 21.18 3.5 4.88 6.82 7.07 10.62 11.17l8.59 10.83c0.64-12.06-15.04-17.51-20-28zm36-15.54c-4.37 1.46-7.97 3.85-9.34 8.54-2.18 7.52 4.26 12.47 11.34 10.57 10.88-2.93 10.72-19.63-2-19.11zm-60.98 1.14c-12.73 7.02-2.5 22.12 6.96 18.65 10.22-3.75 6.58-21.2-6.96-18.65z" fill="#fff" stroke="#000" stroke-width="0"/>
    <path id="tongue" d="m245 372 20 1c-0.75 15.08-13.1 15.78-18.26 7.96-1.89-2.87-1.71-5.7-1.74-8.96z" fill="red" stroke="#000"/>
    <path id="dark_aqua_outline" d="m310 195 27 1 10 0.96h14l1 39.04 1 23 1 17v27l-1 22c-0.2 16.41-8.74 72.81-12 91l-10 0.91-64 6.18-12 0.91h-16l-29-2.84-50-4.25-15-0.91-2.84-28-4.33-43-1.83-22v-18l8.42-75 2.16-17c0.23-1.68 0.42-5.12 1.44-6.4 1.5-1.88 9.47-2.45 11.98-2.56l35.27-2.68c5.96-0.28-6.29 30.7-12.57 44.64-4.37 9.67-11.23 25.38-10.61 36 0.24 4.05 1.49 9.37 3.29 13 1.5 3.05 4.62 6.46 3.63 10-2.91 10.52-24.37 10.5-22.03 23 1.45 7.72 11.36 11.54 17.02 15.63l11 9.15 22 12.32 16.73 6.62c2.6 2.11 3.52 6.29 5.17 9.28 2.84 5.12 7.36 9.54 13.1 11.2 8.64 3.87 18.7-7.43 18-8.2 1.88-3.25 5.51-11.18 7.39-12.83 1.97-1.25 5.27-1.18 7.61-1.64 3.77-0.72 8.61-2.62 12-4.42 5.07-2.69 16.86-9.37 21-12.73l9-8c5.67-4.53 18.71-10.34 17.02-19.38-1.95-10.34-16.13-9.02-19.26-18-1.44-4.11 1.43-7.5 3.11-11 2.1-4.37 3.42-9.15 3.81-14 0.78-9.85-5.95-23.05-9.67-32-6.52-15.69-8.08-22.34-10.43-39-0.75-5.26-2.15-10.73-1.58-16zm-78 3h18l12-0.96h9l17-1.04c-10.35 18.44-22.48 29.89-27 52-0.74 3.67-1.51 15.58-7.79 13.34-4.16-1.48-4.72-13.21-5.63-17.34-2.67-12.08-10.01-35.15-15.58-46z" fill="#01E5EAFF" stroke="#000"/>
    <path id="light_aqua_outline" d="m211 362c4.5 2.4 7.07 4.24 12 5.98 2.63 0.94 8.68 2.35 10.51 3.87 2.17 1.81 3.68 6.54 5.13 9.15 3.14 5.64 8.64 11.15 15.36 11.8 8.15 0.79 14.05-5.24 17.69-11.8 1.49-2.69 3.28-7.31 5.7-9.07 2.54-1.84 7.42-1.86 10.61-2.69 5.47-1.43 7.34-2.57 12.22-5.15-2.43 1.68-7.52 7.82-3.22 7.91h38s22-1 22-1l-4.57 32c-0.47 2.82-0.82 10.26-3.02 11.98-1.87 1.45-9.52 0.96-12.41 1.3 0 0-34 3.77-34 3.77s-23 2.91-23 2.91h-10l-10 1.04h-4l-10-0.91-31-2.93c-19.96-2.13-39.92-4.16-60-4.16l-4-44h58c11.08-0.21 6-4.97 2-10z" fill="#6FF3F5FF"/>
    <path id="outer_handle" d="m158 167s34 6.94 34 6.94c1.75 0.2 3.11 0.31 4.66-0.71 2.39-1.56 10.65-17.63 12.56-21.23 0 0 32.38-56 32.38-56 3.95-6.58 8.27-17.73 17.4-16.8 9.4 0.96 15.29 13.41 19.58 20.8 0 0 37 66 37 66l8.73 16c1.33 2.45 3.48 6.57 5.9 7.98 2.1 1.23 5.4 1.02 7.79 1.02 10.1 0.02 19.97-0.32 30 1v34l1.04 15v14l0.96 12v51l-0.91 12s-4.36 46-4.36 46l-4.73 31c6.41 0.54 18.96 3.69 20.53 11 1.74 8.13-9.6 11.89-15.53 13.57-15.76 4.47-32.8 4.41-49 5.52l-12 0.91h-36l-17 1h-41l-10-0.96h-15c-9.7-0.06-29.25-2.47-39-4.3-4.63-0.87-12.41-3-15.26-6.95-7.52-10.41 13.56-12.75 16.46-17.06 1.19-2.28 0.56-5.25 0-7.73l-1.48-16-9.89-108-4-42s-1.83-26-1.83-26l6-1s2.17 25 2.17 25 2.83 50 2.83 50h2l4.85-47 3.19-23v-10s2.33-8 2.33-8l4.63-29zm107-75c-6.61 1.57-5.4 1.42-12 0l-35.31 63c-5.19 9.61-17.09 31.35-19.69 41l8-1v6l-39 3.09-10 0.91-11 98v21l0.91 12s3.92 40 3.92 40l4.17 40 17 1 47 4.16 31 2.84h17l49-4.84 35-3.16c5.05-28.08 9.13-56.61 11.96-85v-10l1.04-12v-38l-1-17-1-23-1-34-19-1h-20-11c-0.53-6.3 2.78-5.93 8-6l-19.14-36-34.86-62zm-70 89-31-7-4 26 20-1.42 7.3-2.18 7.7-15.4z" stroke="#000"/>
    <path id="inner_handle" d="m213 199s4.92-7 4.92-7l8.48-21s17.36-40 17.36-40l7.64-16c1.03-2.03 2.36-5.62 4.8-6.26 2.5-0.65 4.39 1.53 5.7 3.32l8.85 16.94 22 44 6.78 14.89c3.39 5.79 12.11-4.53 13.47 8.2 0 0-21 2.91-21 2.91l-19-2-15 1.04h-13l-11 0.96h-21zm45-75-12 25-18 43h20l18-1 23-2s-31-65-31-65z" stroke="#000"/>
</svg>
